{"title":"The Strawbs - Bursting At The Seams FLAC","uid":4830820,"size":369446383,"categoryP":"audio","categoryS":"flac","magnet":"?xt=urn:btih:e6af5f8338a4b4bdbfe3863974abfb00967765fe&amp;dn=The+Strawbs+-+Bursting+At+The+Seams+FLAC&amp;tr=udp%3A%2F%2Ftracker.openbittorrent.com%3A80&amp;tr=udp%3A%2F%2Fopen.demonii.com%3A1337&amp;tr=udp%3A%2F%2Ftracker.coppersurfer.tk%3A6969&amp;tr=udp%3A%2F%2Fexodus.desync.com%3A6969","seeders":3,"leechers":1,"uploader":null,"files":15,"time":1239121930,"description":"REM GENRE Folk\nREM DATE 1973\nREM DISCID C70C3B0D\nREM COMMENT &quot;ExactAudioCopy v0.99pb3&quot;\nPERFORMER &quot;The Strawbs&quot;\nTITLE &quot;Bursting At The Seams&quot;\nFILE &quot;Range.wav&quot; WAVE\n  TRACK 01 AUDIO\n    TITLE &quot;Flying&quot;\n    PERFORMER &quot;The Strawbs&quot;\n    INDEX 01 00:00:00\n  TRACK 02 AUDIO\n    TITLE &quot;Lady Fuschia&quot;\n    PERFORMER &quot;The Strawbs&quot;\n    INDEX 01 04:51:40\n  TRACK 03 AUDIO\n    TITLE &quot;Stormy Down&quot;\n    PERFORMER &quot;The Strawbs&quot;\n    INDEX 01 08:51:57\n  TRACK 04 AUDIO\n    TITLE &quot;The River&quot;\n    PERFORMER &quot;The Strawbs&quot;\n    INDEX 01 11:37:72\n  TRACK 05 AUDIO\n    TITLE &quot;Down By The Sea&quot;\n    PERFORMER &quot;The Strawbs&quot;\n    INDEX 01 14:00:30\n  TRACK 06 AUDIO\n    TITLE &quot;Part Of The Union&quot;\n    PERFORMER &quot;The Strawbs&quot;\n    INDEX 01 20:20:32\n  TRACK 07 AUDIO\n    TITLE &quot;Tears And Pavan&quot;\n    PERFORMER &quot;The Strawbs&quot;\n    INDEX 01 23:16:20\n  TRACK 08 AUDIO\n    TITLE &quot;The Winter And The Summer&quot;\n    PERFORMER &quot;The Strawbs&quot;\n    INDEX 01 29:53:70\n  TRACK 09 AUDIO\n    TITLE &quot;Lay Down&quot;\n    PERFORMER &quot;The Strawbs&quot;\n    INDEX 01 34:03:42\n  TRACK 10 AUDIO\n    TITLE &quot;Thank You&quot;\n    PERFORMER &quot;The Strawbs&quot;\n    INDEX 01 38:36:37\n  TRACK 11 AUDIO\n    TITLE &quot;Will You Go&quot;\n    PERFORMER &quot;The Strawbs&quot;\n    INDEX 00 40:51:47\n    INDEX 01 40:52:00\n  TRACK 12 AUDIO\n    TITLE &quot;Backside&quot;\n    PERFORMER &quot;The Strawbs&quot;\n    INDEX 00 44:46:40\n    INDEX 01 44:46:52\n  TRACK 13 AUDIO\n    TITLE &quot;Lay Down (Single Version)&quot;\n    PERFORMER &quot;The Strawbs&quot;\n    INDEX 01 48:36:10\n","torrent":{"xt":"urn:btih:e6af5f8338a4b4bdbfe3863974abfb00967765fe","amp;dn":"The+Strawbs+-+Bursting+At+The+Seams+FLAC","amp;tr":["udp%3A%2F%2Ftracker.openbittorrent.com%3A80","udp%3A%2F%2Fopen.demonii.com%3A1337","udp%3A%2F%2Ftracker.coppersurfer.tk%3A6969","udp%3A%2F%2Fexodus.desync.com%3A6969"],"infoHash":"e6af5f8338a4b4bdbfe3863974abfb00967765fe","infoHashBuffer":{"type":"Buffer","data":[230,175,95,131,56,164,180,189,191,227,134,57,116,171,251,0,150,119,101,254]},"announce":[],"urlList":[]}}